<?xml version="1.0" encoding="utf-8"?>
<svg
  id="Capa_1" data-name="Capa 1" xmlns="http://www.w3.org/2000/svg" viewBox="0 0 280.78 276.75"
>
  <defs>
    <style>
      .cls-1 {
        fill: #eedc40;
        animation: anima1  2.3s ease-in-out infinite;

      }
      .cls-2 {
        fill: #be1414;
        animation: anima2  2.3s ease-in-out infinite;

      }
       .cls-3{
        fill: #000098;
        animation: anima3  2.3s ease-in-out infinite;
      }


      .cls-5 {
        fill: #000098;
      }
      .cls-4 {
        fill: #fff9e8;
        animation: Taza  2.3s ease-in-out infinite;
      }
      .cls-5 { 
        stroke: #fff9e8;
        stroke-miterlimit: 10;
        stroke-width: 3px;
      }

      @keyframes anima1{
        0%, 100%{
            fill: #eedc40;
        }
        33%{
            fill: #be1414;
    
        }
        66%{
            fill: #000098;
        }
      }
    @keyframes anima2{
        0%, 100%{
            fill: #000098;
        }
        33%{
            fill: #eedc40;
    
        }
        66%{
            fill: #be1414;
        }
    }
    @keyframes anima3{
        0%, 100%{
            fill: #be1414;
        }
        33%{
            fill: #000098;
    
        }
        66%{
            fill: #eedc40;
        }
    }

    


    </style>
  </defs>
  <path
    class="cls-1"
    d="M150.66,244.53V267.3a3.12,3.12,0,0,1-3.11,3.11H41.36a3.12,3.12,0,0,1-3.11-3.11V190.13A3.11,3.11,0,0,1,41.36,187H64.49l7.73,38.48A3.35,3.35,0,0,0,74.57,228l2.17.68a3.13,3.13,0,0,1,.7,5.83l-1,.54a3.15,3.15,0,0,0-1.65,3.34l.69,3.48A3.53,3.53,0,0,0,79,244.53Z"
    transform="translate(-5.63 -10.25)"
  />
  <path
    class="cls-2"
    d="M261.75,204.93v50.19a3.11,3.11,0,0,1-3.11,3.11H135.46a3.11,3.11,0,0,1-3.11-3.11V244.53h49.31a3.53,3.53,0,0,0,3.49-2.54l1-3.9a3.16,3.16,0,0,0-1.85-3.59,3.15,3.15,0,0,1-1.94-2.87,3.25,3.25,0,0,1,2.49-3.09l2.06-.6a3.56,3.56,0,0,0,1.29-.69,3,3,0,0,0,1.09-1.69l5.49-21.86h0l16.16,5.69a3.81,3.81,0,0,0,4-.89l6.47-6.68h37.25A3.11,3.11,0,0,1,261.75,204.93Z"
    transform="translate(-5.63 -10.25)"
  />
  <path
    class="cls-3"
    d="M212.09,230.37v53.52A3.12,3.12,0,0,1,209,287h-91.8a3.11,3.11,0,0,1-3.11-3.11V244.53h67.6a3.53,3.53,0,0,0,3.49-2.54l1-3.9a3.16,3.16,0,0,0-1.85-3.59,3.15,3.15,0,0,1-1.94-2.87,3.25,3.25,0,0,1,2.49-3.09l2.06-.6a3.56,3.56,0,0,0,1.29-.69H209A3.12,3.12,0,0,1,212.09,230.37Z"
    transform="translate(-5.63 -10.25)"
  />
  <path
    class="cls-4"
    d="M249.2,170.57l-12.47-32.83a3.7,3.7,0,0,0-4.75-2l-15.84,5.85c-2.68,1-5.48-1.17-4.85-3.73l4.91-19.56a3.34,3.34,0,0,0-3.49-4H54.2a3.36,3.36,0,0,0-3.53,3.83L64.49,187l7.73,38.48A3.36,3.36,0,0,0,74.57,228l2.17.68a3.13,3.13,0,0,1,.71,5.83l-1,.54a3.15,3.15,0,0,0-1.65,3.34l.69,3.48A3.53,3.53,0,0,0,79,244.53H181.66a3.52,3.52,0,0,0,3.49-2.54l1-3.9a3.16,3.16,0,0,0-1.85-3.59,3.14,3.14,0,0,1-1.93-2.87,3.24,3.24,0,0,1,2.48-3.09l2.06-.6a3.56,3.56,0,0,0,1.29-.69,3,3,0,0,0,1.09-1.69l5.49-21.86h0l16.16,5.69a3.84,3.84,0,0,0,4-.89l6.46-6.68,27.12-28.06A3,3,0,0,0,249.2,170.57ZM200.63,128.2l-6.56,5.94a3.81,3.81,0,0,1-2.54.94h-118a3.72,3.72,0,0,1-2.47-.89l-6.87-5.94c-2.34-2-.77-5.59,2.46-5.59H198.1C201.29,122.66,202.89,126.16,200.63,128.2Zm32.84,45.56L218.2,189.57a3.83,3.83,0,0,1-4,.89l-6.69-2.35a3.2,3.2,0,0,1-2.22-3.58l4.38-22.83a3.32,3.32,0,0,1,2.18-2.45l12.3-4.53a3.68,3.68,0,0,1,4.73,1.94l5.28,13.91A3,3,0,0,1,233.47,173.76Z"
    transform="translate(-5.63 -10.25)"
  />
  <path
    class="cls-5"
    d="M52.6,101.46q-14.07,1.68-28.08,4.16l-.44-1.74,2.8-.5Q18.95,71.08,11,38.8l-3.13,1L7.43,38Q23.18,33,39.18,28.83l4,21.78q-4.94,1.08-9.85,2.27l-4-19.47c-2.74.76-5.49,1.54-8.22,2.34l6.75,30.19c3.79-.88,7.6-1.73,11.4-2.54l.37,1.85q-5.7,1.19-11.37,2.49,3.82,17.07,7.63,34.14c2.44-.38,4.88-.75,7.33-1.09l-4-19.47c3.12-.58,6.25-1.12,9.37-1.64Q50.6,90.57,52.6,101.46Z"
    transform="translate(-5.63 -10.25)"
  />
  <path
    class="cls-5"
    d="M83,87.87a10,10,0,0,1-2.82,8.3,13,13,0,0,1-8.8,4,15.25,15.25,0,0,1-9.78-2.33,10.56,10.56,0,0,1-5-7.19q-1-5.94-2-11.87,4.69-.72,9.39-1.35l2.55,16.83c.43,2.87,2,4.17,4.62,4s3.72-1.77,3.33-4.69L72.64,80.18A16.38,16.38,0,0,0,68.53,71q-7.14-7.65-14.6-14.75a15.6,15.6,0,0,1-4.78-8.84l-1.72-10c-.51-3,.44-5.84,2.91-8.61a18.51,18.51,0,0,1,10.08-5.6c4.21-.92,7.88-.57,11,1.07a9.05,9.05,0,0,1,5.17,7.24q.71,6.28,1.43,12.57-5,.76-10,1.64-1.14-8.58-2.29-17.14c-.39-2.91-2.07-4.07-5-3.42s-4.3,2.44-3.87,5.3q1,6.29,1.9,12.58a15.4,15.4,0,0,0,4.35,8.81q7.38,7.33,14.4,15.23a17.29,17.29,0,0,1,4.24,9.7Q82.35,82.32,83,87.87Z"
    transform="translate(-5.63 -10.25)"
  />
  <path
    class="cls-5"
    d="M120.68,39.12q-4.62.36-9.24.79-.57-11.35-1.15-22.72l-4.7.62q2.28,39,4.57,78H113l.11,2.13q-7.31,0-14.62.18L98.29,96l2.82-.08L95.17,19.32l-4.69.74,1.89,22q-4.61.59-9.2,1.26-1.23-11.82-2.45-23.63,19.45-3.56,39.12-5.78Z"
    transform="translate(-5.63 -10.25)"
  />
  <path
    class="cls-5"
    d="M140.85,98.78q-7.29-.42-14.58-.63L126.21,96,129,96q-.81-40.38-1.64-80.76c-1.08.11-2.17.21-3.25.33l-.06-2.19q8.52-.9,17.08-1.55c0,.74,0,1.49,0,2.24l-3.27.25.18,82,2.81.15C140.85,97.29,140.85,98,140.85,98.78Z"
    transform="translate(-5.63 -10.25)"
  />
  <path
    class="cls-4"
    d="M171.79,101.56Q158.17,99.91,144.46,99l0-2.26,2.81.18q.68-41.66,1.34-83.32c-1.09.07-2.18.13-3.27.21l0-2.26q8.55-.59,17.13-.93l-.09,2.31-3.28.13q-1.43,42.27-2.86,84.55,3.36.28,6.74.62.57-12.34,1.16-24.69c3.12.18,6.25.39,9.37.62Z"
    transform="translate(-5.63 -10.25)"
  />
  <path
    class="cls-4"
    d="M202.74,106.32q-5.69-1.06-11.38-2l.19-1.9a8,8,0,0,1-6.47,1.58c-6.12-.92-8.9-5.31-8.33-13.34q.54-7.56,1.09-15.12c.59-8.43,5.52-12.41,14.76-11.59l2.87.28Q196.64,53,197.79,41.7c.37-3.58-.68-5.45-3.15-5.58s-3.81,1.6-4.12,5.15q-.65,7-1.27,14.08-4.77-.35-9.54-.61l.6-8.14a13.14,13.14,0,0,1,14.56-12.89c4.18.2,7.36,1.65,9.49,4.34s2.93,6.15,2.43,10.35l-6.56,55,2.82.5C202.94,104.68,202.84,105.5,202.74,106.32ZM191.8,100q1.71-16.68,3.43-33.35l-2.74-.27c-3-.29-4.72,1.34-5,4.84q-1.11,12.49-2.23,25-.45,5.06,2.53,5.5C189,101.91,190.37,101.34,191.8,100Z"
    transform="translate(-5.63 -10.25)"
  />
  <path
    class="cls-4"
    d="M222,110.31l-2.73-.61a12.67,12.67,0,0,1-8.29-6,15.63,15.63,0,0,1-2.23-10.59l7.29-54.79-3.2-.29c.1-.82.21-1.64.31-2.46l3.22.27L219.05,16q5.41-2.09,10.92-4.13-1.87,12.48-3.74,25,3.56.38,7.11.8c-.14.85-.27,1.69-.41,2.53-2.36-.29-4.71-.57-7.07-.82q-4.61,30.74-9.2,61.48c-.55,3.7.47,5.81,3.05,6.38l2.74.6C222.31,108.63,222.17,109.47,222,110.31Z"
    transform="translate(-5.63 -10.25)"
  />
  <path
    class="cls-4"
    d="M241.75,115.24l-2.69-.73a12.54,12.54,0,0,1-8-6.45,16.35,16.35,0,0,1-1.77-11q4.81-28.09,9.64-56.18l-3.2-.42.42-2.53,3.21.41q1.76-10.18,3.5-20.37,5.51-1.93,11.11-3.83-2.4,12.78-4.81,25.57,3.54.52,7.08,1.09c-.17.86-.34,1.72-.52,2.58q-3.51-.57-7-1.11l-11.85,63c-.71,3.79.22,6,2.77,6.67l2.71.72C242.1,113.52,241.93,114.38,241.75,115.24Z"
    transform="translate(-5.63 -10.25)"
  />
  <path
    class="cls-4"
    d="M273.5,109.48a16.15,16.15,0,0,1-6.18,9.55,10.52,10.52,0,0,1-9.72,1.57,12.63,12.63,0,0,1-7.79-6.87,17.07,17.07,0,0,1-1.34-11.39q4.88-23.37,9.74-46.75a15.22,15.22,0,0,1,6.2-9.68,13.85,13.85,0,0,1,11.11-2.36A12.61,12.61,0,0,1,284.58,50a15.23,15.23,0,0,1,1.23,11.56q-3.22,12.59-6.46,25.16-8.55-2.37-17.15-4.45L255.72,111c-.87,3.86,0,6.17,2.49,6.94s4.2-.79,5.14-4.69q1.84-7.74,3.71-15.47,4.4,1.23,8.78,2.54Zm-2.56-27.85,6.9-28.73c.94-3.89,0-6.15-2.93-6.72s-4.84,1.08-5.7,4.94l-6.42,28.5Q266.87,80.6,270.94,81.63Z"
    transform="translate(-5.63 -10.25)"
  />
</svg>